# xmcd
#
# Track frame offsets:
# 150
# 27520
# 48583
# 66497
# 87128
# 101375
# 120086
# 143693
# 159581
# 178705
# 203752
# 229442
# 252358
#
# Disc length: 3718 seconds
#
#
# Revision: 0
# Processed by: cddbd v1.5.1PL0 Copyright (c) Steve Scherf et al.
# Submitted via: FreeRIP 2.90 
#
DISCID=af0e840d
DTITLE=Patricia Faria - Patricia Faria
DYEAR=1900
DGENRE=
TTITLE0=Patricia Faria-01
TTITLE1=Patricia Faria-02
TTITLE2=Patricia Faria-03
TTITLE3=Patricia Faria-04
TTITLE4=Patricia Faria-05
TTITLE5=Patricia Faria-06
TTITLE6=Patricia Faria-07
TTITLE7=Patricia Faria-08
TTITLE8=Patricia Faria-09
TTITLE9=Patricia Faria-10
TTITLE10=Patricia Faria-11
TTITLE11=Patricia Faria-12
TTITLE12=Patricia Faria-13
EXTD=
EXTT0=
EXTT1=
EXTT2=
EXTT3=
EXTT4=
EXTT5=
EXTT6=
EXTT7=
EXTT8=
EXTT9=
EXTT10=
EXTT11=
EXTT12=
PLAYORDER=
